<svg id="Capa_1" data-name="Capa 1" xmlns="http://www.w3.org/2000/svg" viewBox="0 0 1237.23 1084.25"><defs><style>.cls-1{fill:#914e2e;}</style></defs><title>KaabMap-Logos</title><path class="cls-1" d="M325.51,851.57a53.33,53.33,0,0,0-4.18-6.71c-5-6.86-12.25-8.42-20.11-7.93-7.49.48-12.35,3.79-15.3,11.52-8.84,23.12-18.67,45.86-27.82,68.87-2.8,7-6.88,13.57-8.49,21.11-1.53,7.09-.35,10.23,4.8,12.16,6.18,2.32,11.26.74,14.3-4.84a57.16,57.16,0,0,0,3.77-9.15c2.51-7.44,7-11.34,15.34-10.93a165.33,165.33,0,0,0,25.57-.53c18.15-1.95,18.35-2.34,26.43,14.53,3.44,7.17,8.61,10.51,16.25,10.68,4.82.28,7.35-1.88,7.72-6.72.24-3-.74-5.85-1.72-8.68C352.11,906.16,339.57,878.53,325.51,851.57Zm-32.62,49c-3.85.77-5.8-1.26-4.14-5.18,4.74-11.18,9.66-22.28,15.3-35.2,7.94,12.44,14.9,23.06,19.24,35.54C313.12,899.65,302.77,898.64,292.89,900.59Z"/><path class="cls-1" d="M458.42,851.81a53.33,53.33,0,0,0-4.18-6.71c-5-6.86-12.25-8.42-20.11-7.93-7.5.48-12.35,3.79-15.3,11.52C410,871.81,400.15,894.55,391,917.56c-2.8,7.05-6.88,13.57-8.49,21.11-1.53,7.09-.35,10.23,4.79,12.16,6.19,2.32,11.27.73,14.31-4.85a56.67,56.67,0,0,0,3.77-9.14c2.5-7.44,7-11.34,15.34-10.93a165.36,165.36,0,0,0,25.57-.53c18.14-2,18.34-2.34,26.43,14.53,3.44,7.17,8.61,10.51,16.25,10.68,4.82.28,7.35-1.88,7.72-6.72.24-3-.75-5.85-1.73-8.68C485,906.4,472.47,878.77,458.42,851.81Zm-32.62,49c-3.85.77-5.81-1.26-4.15-5.18,4.74-11.18,9.67-22.28,15.31-35.2,7.93,12.44,14.9,23.06,19.24,35.54C446,899.89,435.67,898.88,425.8,900.83Z"/><path class="cls-1" d="M949.78,853.35a54,54,0,0,0-4.22-6.74c-5.08-6.87-12.37-8.43-20.3-7.94-7.57.48-12.47,3.79-15.45,11.54-8.93,23.18-18.86,46-28.09,69-2.83,7.07-6.94,13.6-8.57,21.16-1.54,7.11-.35,10.25,4.84,12.18,6.25,2.33,11.38.74,14.44-4.85a56.63,56.63,0,0,0,3.81-9.17c2.53-7.46,7.06-11.36,15.49-10.95a167.18,167.18,0,0,0,25.81-.53c18.32-2,18.52-2.34,26.69,14.56,3.47,7.19,8.69,10.54,16.41,10.7,4.86.29,7.41-1.88,7.79-6.73.24-3-.76-5.87-1.74-8.7C976.64,908.05,964,880.36,949.78,853.35Zm-32.93,49.12c-3.89.77-5.86-1.26-4.19-5.19,4.79-11.21,9.76-22.33,15.45-35.28,8,12.47,15,23.11,19.43,35.62C937.27,901.53,926.82,900.51,916.85,902.47Z"/><path class="cls-1" d="M219.7,929.05c-3.78-3.75-7.63-7.42-11.4-11.17-8-8-16.77-15.29-24-24.09-2.86-3.52-3-5.57.83-8.45,12.15-9.07,19.49-22.28,29.81-33,5.46-5.67,1.27-14.69-6.48-17.34-7.2-2.45-12.53-.51-17.21,4.89-7.65,8.8-15.35,17.56-23.28,26.13-2.72,2.93-5.12,8.68-9.6,6.83-4.15-1.71-1.87-7.52-2.14-11.51-.44-6.57.47-13.26-2.37-19.56s-6.26-8.81-12-8.71c-6.26.1-10.76,3.22-13.15,9.11-1.35,3.31-1.25,6.82-1.54,10.28-1.57,19.54,1.6,38.91,2.76,58.32.66,11,1,22.24,3.5,33.16,1.67,7.32,4.64,10.82,9.6,10.93,7.76.18,13.75-3.66,15.7-10.19,2-6.84,1.64-13.79.7-20.73-.54-4-1.59-8.05-.37-11.94,2.76-.65,3.75,1.06,5,2.18,9,8.08,18,16.09,26.81,24.33a53.44,53.44,0,0,0,19,11.74c4.1,1.44,8.78,2.28,12.43-.65,4.13-3.33,3.09-8.25,2.47-12.72C224.31,933.64,222,931.3,219.7,929.05Z"/><path class="cls-1" d="M843.64,878.11c-.71-12.53,3.32-40.19-14.66-41.19-5.39-.31-8.71.63-10.94,3.36-2.52,1.26-4.83,3.93-6.91,6.92-14.07,20.2.48.33-14.18,20.11-2.79,3.77-8.39,10.83-13.1,17.31-5.36-6.68-11.49-13.79-14.12-17.36-14.58-19.83-.1.09-14.1-20.16-4.89-7.07-12.3-9.91-20.7-9.54-9.58.41-10,9.11-10.13,16.49-.16,13.55-.18,27.08-1.6,40.61-1.66,15.81-.49,31.74-.24,47.61.12,7.73,3.92,10.54,11.54,9.86,12.22-1.11,16.29-5.27,16.51-17.7.23-13.56-.43-23.51.12-40.68.22,0,.63-12,.68-15.92,10.22,13.46,22.65,29.56,23,30,0,0,.55.5,1,1,4.37,4.64,9.73,4.89,15.2,1.08a10.48,10.48,0,0,0,2.8-2.75c.44-.47,1-1,1-1,.29-.41,10-13.78,19-26.08,0,7.93,0,15.85-.31,23.77-.45,13,.71,25.78,2.14,38.61.37,3.27.42,7.15,3.58,8.86,6.22,3.39,13.06,2.56,19.23.1,4.18-1.66,5.82-6.89,6.39-12.76.66-6.79-.12-14.43-.08-18.41Q844.82,899.18,843.64,878.11Z"/><path class="cls-1" d="M1108.26,862.13c-4.33-11.69-15.62-20.38-28.17-23.94-8.23-2.32-16.42-1.52-24.76-2.58-7.8-1-16.13,1.12-23.68,3-5.13,1.26-9.88,1.43-14.14,4.87-4.68,3.78-5,8.32-4.71,13.37,1.46,24,4.56,51.6,4.26,75.7-.07,5.32,1.38,14.35,3.92,19,4,7.41,13.74,7.66,18.65.76a14.21,14.21,0,0,0,2.93-7.31c.42-6.57,1.36-17,1.43-23.57.06-5.24,1.2-7.57,6.2-9.88,5.27-2.43,10.84-1,16.57-1.13,9.94-.31,22.76-2.19,31.58-6.81,7.34-3.83,10.35-11.78,11.44-19.06C1110.89,877.08,1110.91,869.28,1108.26,862.13Zm-29.06,24.71c-4.22,1.85-11,2.08-15.6,2.45-5.75.47-22.45,2.14-22.6-5.94-.08-4-.14-7.91-.25-11.86-.06-2.34-.62-4.84-.47-7.15.16-2.6.79-3.16,3.18-4.9,9.71-7.11,32.63-4.91,40.29,4.19C1090.2,871.29,1089.24,882.42,1079.2,886.84Z"/><path class="cls-1" d="M626.89,912.38A36.08,36.08,0,0,0,620,897.17c-.82-1-8.84-7.83-9-7.39a51.45,51.45,0,0,0,1.72-6.56c1.41-7.2,1.77-14.74-.5-21.76-3.72-11.49-14.35-20.39-26.45-24.37-7.72-2.55-16-3.13-24.07-2.82-11.22.44-23.58.34-34.33,3.69-6.16,1.92-8.15,8.64-8.06,14.17.38,23.25,2.21,50.07.86,73.34-.38,6.46-.55,17,4.19,22.31,2.27,2.54,7.52,3.27,10.77,4.29,5.47,1.71,10.86,1.66,16.4,2.67,15.61,2.84,38,3.34,52.83-2.47a45.62,45.62,0,0,0,18.9-13.53c4.1-5,4.93-14.48,4.46-20.72A40.94,40.94,0,0,0,626.89,912.38ZM548,856.45c3.87-3,8.2-2.52,12.8-2.6l2.19,0c11,0,24.63,2,28.57,12.8,3.29,9-1.38,18.2-12.2,18.55-6.9.22-30.11,4.36-33.43-4.36a4.71,4.71,0,0,1-.3-1.82c.1-3.82.22-7.64.28-11.47C546,864,544.67,859,548,856.45Zm50.7,71.72a14.58,14.58,0,0,1-7.76,4c-1.47.35-3,.62-4.55,1a100.29,100.29,0,0,1-16,2.12c-6.66.34-14.8.67-21.19-1.6-2.26-.8-2.16-1.67-2.38-3.77.14-2.86-.8-5.77-.65-8.66s-1.3-9.53.93-12c1.7-1.86,4.73-2.33,7.15-2.71,11-1.7,22.51-4.87,33.61-2,3.52.93,6.52,1.14,9.07,3.7s4.78,5.31,5.3,9.05A13.32,13.32,0,0,1,598.7,928.17Z"/><polygon class="cls-1" points="541.59 303.2 546.6 292.34 550.6 287.42 558.17 282.44 578.14 276.76 593.52 277.12 605.25 280.4 616.88 286.54 625.43 294.5 633.57 307.3 637.04 319.54 638.18 336.22 640.42 344.09 646.07 348.15 650.23 346.97 652.81 343.4 655.91 332.13 656.5 321.57 653.36 307.35 647.14 294.95 637.1 281.74 626.38 272.51 616.66 266.77 603.61 261.97 588.56 259.63 575.34 260.56 559.52 265.05 547.21 272.33 537.3 281.75 530.97 291.11 525.38 303.09 522.53 315.23 521.1 326.03 521.75 340.96 525.72 354.94 533.85 367.75 538.42 371.17 543.41 369.75 546 366.19 548.92 360.63 552.08 355.96 556.33 351.92 570.81 345.91 577.05 339.42 583.39 330.06 593.3 320.63 600.79 318.51 607.6 320.35 616.25 325.45 620.9 326.02 621.82 322.92 616.61 304.57 611.88 297.41 606.48 294.22 587.85 291.95 572.71 292.48 562.98 296.19 559.31 299.12 553.81 308.24 552.47 316.17 555.37 320.07 562.03 318.18 566.86 313.03 576.77 303.6 584.01 300.6 596.4 299.92 601.06 300.48 604.13 308.11 590.57 311.02 580.25 315.84 570.09 324.39 553.69 339.44 545.37 341.81 542.62 341.64 539.13 338.86 536.9 330.99 538.08 319.32 541.59 303.2"/><polygon class="cls-1" points="406.56 486.44 438.61 468.92 443.1 465.65 450.54 459.15 455.83 453.02 459.83 445.97 463.41 436.72 464.92 429.41 466 419.91 466.82 411.35 468.67 404.67 474.74 395.68 484.34 388.81 491.6 384.84 498.51 380.25 502.66 376.36 507.01 369.94 507.72 365.5 507.49 360.76 504.07 354.52 497.98 350.56 495.83 350.93 495.15 349.68 489.55 349.5 475.14 353.32 460.48 358.1 429.41 370.22 410.59 378.89 402.73 383.18 396.42 387.44 390.19 393.28 386.19 400.33 385.71 409.51 387.2 420.85 390.65 434.36 395.17 444.05 397.48 446.83 400.65 448.34 404.7 448.56 427.07 436.33 432.17 432.73 439.01 426.56 443.35 420.13 446.06 412.17 447.23 404.24 446.68 393.19 443.95 388.2 442.67 387.28 438.01 387.39 427.82 394.59 417.77 404.94 414.3 410.08 412.37 415.19 413.48 418.64 415.37 419.23 420.2 416.58 427.31 409.46 431.54 407.14 433.16 408.69 432.79 413.75 429.4 420.47 423.17 426.31 411.07 432.92 408.92 433.29 406.08 432.4 402.06 426.5 400.21 420.22 399.81 412.33 401.66 405.65 405.66 398.6 413.37 391.14 428.48 382.88 439.44 378.51 452.22 373.15 469.56 366.09 480.87 362.35 487.67 361.87 492.4 363.33 494.45 367.08 493.58 368.36 488.82 372.58 475.25 380.81 467.55 388.27 461.47 397.26 457.63 407.47 453.52 418.63 449.07 429.16 443.34 438.78 433.02 450.09 415.46 465.37 407.34 470.62 398.19 474 385.94 477.45 378.19 477.64 373.46 476.17 367.97 471.88 363.62 465.34 360.39 456.57 357.96 444.94 356.76 426.95 354.52 412.78 354.73 404.56 356.76 395.35 361.03 387.34 367.26 381.5 373.31 378.2 385.81 373.79 407.13 365.38 420.25 360.64 464.25 346.31 480.99 339.59 491.27 333.97 493.35 332.02 493.53 329.49 488.54 328.98 460.34 336.29 435.58 344.15 399.18 355.14 369.24 365.02 343.96 374.8 339.54 379.64 338.04 386.95 337.6 403.39 337.88 415.39 338.98 418.84 337.77 419.51 337.93 422.66 338.97 437.49 342.02 461.75 346.06 480.62 350.49 488.73 358.21 494.23 364.83 496.29 375.08 496.36 390.42 492.83 406.56 486.44"/><polygon class="cls-1" points="404.19 247.84 405.82 249.16 415.98 255.23 425.26 258.71 431.82 259.21 438.22 258.24 446.65 254.38 467.75 242.33 477.11 236.29 483.2 229.99 484.51 225.99 483.67 218.63 480.07 213.06 474.63 209.47 468.97 209.17 458.36 212.07 445.9 216.96 437.09 222.65 435.42 226.1 436.31 228.68 440.5 229.13 456.07 223.03 466.13 220.48 469.6 219.82 471.4 222.6 468.82 225.85 444.58 241.5 440.37 243.43 434.88 244.61 429.96 243.04 422.89 238.13 420.38 234.23 419.85 232.2 422.45 226.57 428.18 219.72 435.36 212.71 458.71 194.48 464.22 190.93 466.78 190.06 471.17 189.6 474.62 191.32 477.88 193.95 489.6 208.49 505.26 231.54 516.08 245.87 524.74 256.87 529.27 260.26 532.19 259.95 532.21 257.57 515.13 229.9 509.57 220.07 500.79 202.84 488.45 175.28 484.31 170.06 481.41 167.99 475.58 166.22 470.64 167.03 463.68 170.75 440.9 186.24 433.55 191.77 423.61 200.56 414.94 210.1 407 220.76 401.8 229.64 399.92 236.38 400.23 241.71 404.19 247.84"/><polygon class="cls-1" points="345.14 349.76 348.22 354.68 350.55 355.79 355.64 356.02 364.87 353.67 385.91 343.9 411.44 334.74 437.75 326.82 457.98 320.99 475.24 317.02 489.76 313.92 496.64 310.46 497.65 308.12 495.51 306.03 486.91 305.43 465.15 308.79 441.41 314.25 420 320.82 393.49 329.73 376.61 334.32 365.23 337.17 360.73 336.56 358.42 332.88 358.24 331.28 359.5 322.78 362.95 311.2 365.36 304.55 368.57 296.55 375.15 284.72 381.5 276.46 386.82 273.13 388.98 272.63 398.15 275.44 403.59 278.88 407.06 284.41 406.45 287.37 401.51 291.31 397.4 291.32 389.98 289.98 384.66 293.32 382.86 297.01 381.8 304.52 382.91 311.54 385.81 314.85 389.92 314.85 397.6 310.03 402.74 305.1 414.38 296.09 419.52 291.16 421.32 287.46 420.4 282.05 417.32 277.13 411.89 271.11 405.29 265.83 395.56 260.8 386.39 257.99 378.96 256.65 375.42 258.87 371.05 265.03 363.44 281.79 354.06 299.65 349.43 311.97 346.35 326.75 345.27 336.84 345.62 340.04 344.24 341.77 345.14 349.76"/><polygon class="cls-1" points="459.68 272.62 463.99 271.31 473.26 270.02 480.86 272.01 494.04 278.62 506.22 286.55 510.5 288.53 512.84 286.56 509.91 280.63 507.29 277 497.77 267.76 489.22 262.14 481.62 260.15 472.36 259.81 462.74 262.09 449.79 267.66 438.15 274.22 434.15 277.84 432.13 282.12 432.07 288.7 435.32 295.29 439.27 298.27 446.54 299.6 466.07 298.98 473.38 295.37 475.39 292.74 474.74 291.42 476.07 290.77 476.43 286.49 474.16 281.87 470.54 279.56 462.94 277.57 458.96 279.54 461.87 287.12 458.89 287.77 450.29 287.09 445.34 285.44 443.05 282.47 445.05 279.84 459.68 272.62"/><polygon class="cls-1" points="624.06 163.03 625.07 175 631.76 198.73 633.23 205.64 635.14 211.8 639.07 217.95 644.51 222.41 648.91 223.5 654.46 221.78 656.13 220.64 663.72 214.6 674.22 207.04 687.54 199.84 702.43 193.38 733.54 182.5 735.22 181.36 736.54 179.11 734.71 175.38 730.14 173.72 715.01 172.89 698.64 172.44 688 170.83 673.58 167.94 663.9 167.25 658.18 168.41 653.94 172.19 652.69 176.87 654.26 181.92 655.4 183.41 657.77 184.51 662.16 185.6 668.06 185 685.06 180.96 692.19 179.97 700.9 179.72 702.83 181.58 700.71 183.47 673.75 192.45 666.7 195.87 657.43 203.04 653.29 204.94 651.19 202.52 647.79 193.75 639.74 180.89 636.61 170.81 634.31 152.48 634.94 147.99 638.12 145.16 645.52 142.86 656.08 142.04 673.85 142.67 697.08 143.44 708.16 144.3 719.6 146.28 729.18 148.84 750.62 156.93 756.77 159.32 774.16 167.43 783.03 172.05 788.12 175.38 789.96 179.12 789.51 179.87 781.5 182.36 765.48 183.03 754.47 184.6 734.74 190.72 723.37 195.48 709.88 202.12 695.68 210.83 682.62 221.02 659.2 246.35 653.81 252.93 654.23 256.49 655.64 256.66 658.55 255.15 687.17 226.98 698.12 218.67 714.16 209.39 729.68 202.74 742.63 198.72 750.2 196.98 758.57 195.61 774.41 194.38 791.66 193.33 798.7 194.22 806.08 196.22 813.29 197.67 819.36 197.63 824.91 195.91 825.97 194.96 827.57 191.4 826.18 186.92 823.11 183.57 815.3 178.01 807.66 173 806.43 173.39 804.33 170.97 795.9 165.6 793.88 165.61 793.53 164.49 790.99 162.83 781.15 157.28 775.44 154.14 750.15 142.33 741.8 139.4 727.65 135.19 713.84 132.1 704.61 130.67 693.35 129.25 667.31 128.11 649.36 126.93 640.03 127.36 628.93 130.81 623.9 134.21 621.07 138.16 620 143.41 621.02 151.08 624.06 163.03"/><polygon class="cls-1" points="863.67 234.24 853.05 220.88 843.6 212.38 837.02 209.59 830.35 208.36 819.23 208.07 785.41 209.66 767.87 208.8 757.85 209.6 746.53 212.42 741.13 214.49 735.98 217.22 717.08 229 696.89 242.79 671.01 260.76 664.13 267.95 664.54 270.82 675.95 266.45 699.83 252.27 716.58 242.07 729.63 234.8 751.85 226.3 757.5 224.89 767.27 223.42 781.65 223.22 800.04 224.51 824.7 224.16 837.18 226.2 841.71 229.01 847.24 234.47 853.53 241.91 856.31 249.18 856.12 252.28 854.13 256.07 844.3 268.17 836.22 275.81 823.67 284.41 809.92 293.46 797.91 298.06 792.6 298.57 784.48 297.14 777.65 293.69 767.66 289.18 759.03 286.43 746.74 281.29 738.71 278.3 731.53 275.74 718.79 273.04 715.73 270.43 736.49 261.72 748.5 257.12 765.98 254.22 776.25 254.07 790.89 254.53 800.21 255.51 806.78 258.29 808.3 262.26 803.15 264.99 793.39 266.45 779 266.66 760.36 264.71 757.61 266.52 759.13 270.48 761.34 272.67 767.31 275.68 774.49 278.24 784.06 279.87 795.79 279.93 806.16 278.23 814.31 274.35 819.56 270.07 823.7 264.7 824.33 259.15 821.45 253.44 814.72 248.44 807.04 244.56 798.75 240.91 791.23 239.25 782.76 238.7 765.88 241.38 757.92 242.15 745.5 243.88 727.48 250.78 715.63 257.59 693.82 268.97 689.18 273.02 689.85 276.55 691.55 277.42 698.47 279.31 706 280.98 718.64 285.23 730.18 288.38 741.37 292.43 753.57 299.13 759.8 302.8 765.77 305.82 774.05 309.46 782.08 312.45 789.35 313.46 799.97 312.42 818.59 305.29 829.24 298.94 838.18 291.73 852.46 278.69 860.64 269.49 868.23 260.52 870.91 254.95 871.8 250.07 868 240.16 863.67 234.24"/><path class="cls-1" d="M437.92,607c-.05,1-.52,1.48-.15,2.49a6.33,6.33,0,0,0,3.27,3.33c1.72.86,2.47-.55,1.95-2.18a40.62,40.62,0,0,1-1-4.76c-.33-1.64-.7-3.16.43-4.52a15.7,15.7,0,0,1,3.72-3.51c1.53-1,3.23-1.35,4.83-2.17.28-.14.63-.32,1-.54a4.93,4.93,0,0,0,1.95-1.78c.48-1-.48-1.76-1.51-1.82a6.13,6.13,0,0,0-1.7.2l-2.56.56a17.6,17.6,0,0,0-4.62,1.66,12.56,12.56,0,0,0-1.85,1.41c-.6.64-1,1.54-1.63,2.11-1.28,1.13-2,1.23-2.48,3a6.5,6.5,0,0,0-.22,4A6.21,6.21,0,0,1,437.92,607Z"/><path class="cls-1" d="M434.79,661.76a3.69,3.69,0,0,0-1.53-3.09,7.35,7.35,0,0,1-2.69-2.4l-1.23-1.77c-2.48-3.6.82-8.25,2.35-11.61a3.38,3.38,0,0,1,.64-1.06,4.33,4.33,0,0,1,.47-.38,2.6,2.6,0,0,0,.32-.26c1-.93.42-3.89-1.26-2.78l-2.55,1.69c-.47.32-1,.35-1.38.7A6.18,6.18,0,0,0,427,642a15.57,15.57,0,0,0-2.38,4.14,17.59,17.59,0,0,0-.84,6.52,5.16,5.16,0,0,0,1.1,3.4c.75.94,1.71,1.68,2.44,2.64s.79,1.88,1.65,2.53a7.19,7.19,0,0,0,3.55,1.4C433.52,662.72,434.69,662.93,434.79,661.76Z"/><path class="cls-1" d="M454.41,704c-.43-.06-.87.2-1.35.11a8.41,8.41,0,0,1-1.64-.76c-1.13-.46-2,.17-3.08,0a8.14,8.14,0,0,1-4-1.78,7.63,7.63,0,0,1-2.11-2.09,18.7,18.7,0,0,1-.9-3.61c-.5-2.11-.51-4.47-1.4-6.45a1.6,1.6,0,0,0-1.22-.94,1.22,1.22,0,0,0-1.27.88l-.45,1.14a7.64,7.64,0,0,0-.93,3.7,22,22,0,0,0,.61,3.51,9.9,9.9,0,0,0,4.12,5.73s0,1.13.11,1.3a2.14,2.14,0,0,0,.86.93c2.56,1.94,5.51,1.77,8.59,2,1.46.12,3.25.49,4.64-.13a1.83,1.83,0,0,0,1.2-1.61A2.16,2.16,0,0,0,454.41,704Z"/><path class="cls-1" d="M496.25,725c-3.37,1-6.81,3.53-10.4,3a10.91,10.91,0,0,1-5.62-3c-1.37-1.28-2.45-3.19-4.21-3.92-1-.41-.62-1.58-1.85-1.18a2.17,2.17,0,0,0-.85.51,2.26,2.26,0,0,0-.52,2.81,17.42,17.42,0,0,0,2.7,3.4,15.9,15.9,0,0,0,2.2,2.36,4.76,4.76,0,0,0,1.8.68c1.2.37,2.09,1.65,3.22,2.24a10.7,10.7,0,0,0,3.86,1,8.47,8.47,0,0,0,3.21-.73c.52-.15,1-.27,1.59-.39a14,14,0,0,0,6.3-3.51,2.33,2.33,0,0,0,.73-2.28C498.16,724.79,497.3,724.74,496.25,725Z"/><path class="cls-1" d="M418.36,512.37l-.75-1.76c-1.5-3.55,2.18-7,4.1-9.61a3.15,3.15,0,0,1,.74-.8,3.07,3.07,0,0,1,.48-.24l.32-.17c1-.64,1.06-3.29-.59-2.63l-2.5,1a12.71,12.71,0,0,0-1.32.35,5.83,5.83,0,0,0-1,.86,13.67,13.67,0,0,0-2.79,3.15,15.59,15.59,0,0,0-1.89,5.49,4.61,4.61,0,0,0,.34,3.14c.48.94,1.18,1.76,1.64,2.71s.35,1.77,1,2.49a6.39,6.39,0,0,0,2.81,1.84c.84.27,1.8.66,2.1-.34a3.25,3.25,0,0,0-.77-2.94A6.46,6.46,0,0,1,418.36,512.37Z"/><path class="cls-1" d="M432.29,557.13c-.36-.13-.8,0-1.19-.14a7.45,7.45,0,0,1-1.29-1c-.89-.6-1.76-.21-2.66-.55a7.3,7.3,0,0,1-3.16-2.26,6.67,6.67,0,0,1-1.46-2.19,17,17,0,0,1-.13-3.28c0-1.9.36-4-.06-5.81a1.37,1.37,0,0,0-.89-1,1.06,1.06,0,0,0-1.25.52l-.59.91a6.86,6.86,0,0,0-1.47,3,19.51,19.51,0,0,0-.09,3.15,8.7,8.7,0,0,0,2.53,5.68s-.17,1-.13,1.15a1.85,1.85,0,0,0,.58,1c1.87,2.13,4.44,2.5,7.06,3.29,1.24.36,2.72,1,4,.71a1.62,1.62,0,0,0,1.33-1.18A1.91,1.91,0,0,0,432.29,557.13Z"/><path class="cls-1" d="M843.9,344.94c-7.77-7.36-19.6-14.87-30.43-15.86-8.54-.77-15,.72-23.22,1.53-2.87.28-16.23-.14-19,.92-1.32.5-9.52,4.85-4,5.38a73.67,73.67,0,0,0,9,0c9.51-.15,29.81,1.51,38.26,6.24l5.06,2.83c9.24,5.18,36.64,31.61,35.89,38.83a103.18,103.18,0,0,1-4.81,23.41c-1.79,5.18-4.47,13.75-10,16.1-4.15,1.76-10,0-14.41-.05-8.41,0-14.11-3.94-21.73-6.84-4.07-1.55-7.92-5.41-11.51-7.89-1.45-1-2.4-2.55-3.7-3.53-1.48-1.12-3.23-.94-4.91-1.59s-3.25-1.61-4.82-2.38c-3.62-1.77-7.68-5.51-11.56-6.62-1.57-.45-3.87-.68-5,.69-.09.11-2.93,1.84-3,2-.53,2.19,9,5.19,10.54,6,4.8,2.64,9.23,6.14,14.11,8.58l13.81,9a123.53,123.53,0,0,0,14.62,8.64c11.7,5.52,32.5,7.46,41.61-4.34,4.79-6.19,11-17.41,12.84-24.89a156.65,156.65,0,0,0,4.23-27.5C872.5,362.26,851.86,352.49,843.9,344.94Z"/><path class="cls-1" d="M763.88,707.78c5.57-8.77,6.45-19.6,6.49-29.73q0-7.35,0-14.71c.05-50.86-.5-101.78.27-152.62.05-3,.1-6.09.12-9.14.09-17.63-.44-35.92-6.07-52.79A64.3,64.3,0,0,0,752.83,428c1.32.44,2.63.93,3.91,1.46a97.39,97.39,0,0,1,13.52,7.22c3.93,2.43,7.77,5,11.65,7.51.66.43,7.57,4,7.57,4l4.31-1s.62-1.82,0-2.29c-4.85-3.67-13.69-6.61-17.62-11.16-4.28-5-10.08-8.3-15.69-11.51a72.64,72.64,0,0,0-10.65-5.35c-5.46-2-12.86-4.2-18.78-4.17-6.15,0-11.53,5.17-16.39,8.4-7.69,5.12-15.39,10.24-22.75,15.82-6.4,4.86-13.77,10.4-22.33,7.77-10.7-3.29-20.8-11.25-29.63-17.85a65.53,65.53,0,0,0-11.81-7.58c-5.07-2.32-11.45-3.23-16.86-1.56,0,0-10.93,3.39-15.16,6.4a5.47,5.47,0,0,1,.63-1.85c.54-.62,1.81-1.21,2.51-2,2.23-2.47,5.26-4.66,7.18-7.36,1.79-2.52,2.69-4.51,5.42-6.34,4.74-3.19,6.69-5.62,12.61-4.94,5.7.65,11.16,2.64,16.41,4.85,6.47,2.71,12.89,6.46,19.51,8.62a39.69,39.69,0,0,0,7.65,1.35c1.15.14,2.28.29,3.42.36a25.93,25.93,0,0,1,3.58.42c.17-.05.79-.2,1-.28l1-.33a22.76,22.76,0,0,0,3.11-3.38c.19-.31,0-.41-.18-.72l-5.14-1.21a41.53,41.53,0,0,1-5.84-1.45c-3.83-1.28-8.17-1.79-11.27-4.37-2.53-2.1-6.43-3.95-9.35-5.5-7.36-3.92-15.26-9.18-23.63-9.26-2.77,0-5.29-.56-8.08.13-9.58,2.38-17,10.93-22.77,18.35-3.35,4.31-7.52,8.59-10.27,13.3-2.31,4-4.49,7.44-8.42,10.15-7.05,4.88-16.25,1.35-23.4-1-7.4-2.38-18.35-6.2-27.56-5.43.09-.13.19-.24.27-.36a62,62,0,0,1,8.7-10.54l15.44-10.18,6.33-6.92,5.28-7.52,4.21-8.11,4.85-5.65,4-1.93,1.51,5.73-.42,1.87-4.63,10-8.21,13.54-.84,3.73,3.61-.07L576,402.4l4-5.43,2.1-5.8,5.67-12.88.81-10.72,2.1-5.81,5.92-5.06,6.78-1.78,4,1.57,4.68,4,3.41,6.11,4.74,18,1.27,1.42,3.17-1.71,1.86-13.63,4-1.93,7,2.54L648,376.5l14,5.09,13.17,5.3,8.06,3.14,14.64.54,11.67,3.07,8.5,4.77,3.81.75.43,1.64,1.91.38,3.61-.07-.65-2.46-3.83-4.25-8.08-6.64-2.78-7.15.63-1,6.33-6.92,6.76-8.78,4.22-4.61,4.45-.3,5.31,3,10.22,11.33,9.37,11.56,3.39-.89-.87-6.78,2.75.15,4.47,3.21,10.41,5.15,8.28,4,9.56,5.38,8.07,3.13,16.35,7.1,10,3.51,5.3-.51V404.5l-5.31-3L820,396.8l-13.47-5.64L791,382.78l-17.27-13.86-15.94-9-12.54-9.84-8.72-5.6-7.63-1.5-8.26,3-4.23,4.61-3.16,5.21-8.43,12.73-8.88,7.58-9.1,3.27-11-.61-10.19-4.34-5.31-3-2.76-.15L656,369.14l-11.9-7.39-11.27-8.43-9.36-8.05-8.71-5.6-8.92-2.92-11,2.9-6.13,4.23-10.78,10.71-10.78,7.21-5.07,4.84-4.43,7.29-3.36,7.89L548.81,392l-5.92,5.05-8.06,2.12a8.11,8.11,0,0,1-.54.73c-2.26,2.62-5.56,4-8,6.34s-4.47,5.91-6.49,8.8A171.64,171.64,0,0,0,507,436.6s0,0,0,.07c-1.71,1.56-3.43,3.1-5.27,4.58-3,2.42-4.95,6-8,8.52s-6.12,2.81-9.9,3.19c-2.13.21-6.09,2.05-5.05,4.92.48,1.32,2.33,2.13,4.05,2.67a62.56,62.56,0,0,0,6.2,3.07c14.17,6.73,26.79,15.42,35.24,28.86,3.64,5.78,7.75,13.34,7.67,20.07-.07,5.46-.87,11-1,16.47l-4,13.65L516,558.3l-6.76,5-5.68,1.84-11.46.72-15.89-2.38C467,561,459.75,559.1,454.7,550c-3.72-6.69-7.84-13.09-10.49-20.23-2-5.36-5-10.64-3.14-16.3,1.26-3.8,4.57-6.12,7.69-8.38,6.51-4.71,11.17-11.14,18.66-14.72a20.38,20.38,0,0,1,14.21-1.66,28.2,28.2,0,0,1,6.5,3c7.55,4.42,15.12,10.2,19.76,17.67a14.65,14.65,0,0,1,1.89,4.1c1.86,7.21-3.67,12.76-8.59,16.71-4.24,3.4-10.58,8-16.68,7-5.55-.9-13.57-7.16-11.59-13.08.76-2.26,4.34-6,7.24-4.94,2.11.78.8,4,4,4.23,2.26.15,4.43-3.7,4.38-5.64-.07-2.48-3.32-6.21-5.53-7.47-7.75-4.43-12.54-1.42-18.95,2.55-4.71,2.92-7.76,6.4-4.62,11.76,3.52,6,8.19,11.68,12.21,17.42,1.84,2.62,4,5.5,6.9,7.08,3.52,1.92,6.8.56,10.23-.46a74.53,74.53,0,0,0,21.09-10c5.32-3.66,10.28-8.27,12.3-14.38,2.43-7.35-1.83-12.84-4.07-19.7-2.13-6.52-7.25-12.08-12.24-16.84-4.7-4.48-9.3-8.76-15.58-10.88a51.23,51.23,0,0,0-20.95-2.18c-7,.61-11.62,3-17.29,6.6a101.56,101.56,0,0,0-15.26,12,11.87,11.87,0,0,0-2.12-4.78c-1.3-1.42-4-2.16-5.76-2.75a16.63,16.63,0,0,0-11.33.52c-3.47,1.27-6.89,1.22-10.28,3a20,20,0,0,0-10.08,14.91c-.44,3.07,0,6.09.18,9.15s1.78,5.18,3.63,7.43a27.34,27.34,0,0,0,15.23,9.38l-1,.39c-9.76,3.94-17.25,15.3-13.45,25.7.37,1,.74,2,1.1,3a32,32,0,0,0,1.53,3.68,20.44,20.44,0,0,0,4.75,5.92,28.38,28.38,0,0,0,4.47,3.23,25,25,0,0,0,15.59,3,23.86,23.86,0,0,0,5.87-1.54,20.76,20.76,0,0,0,9-6.85,8,8,0,0,0,.83-1.42,14.3,14.3,0,0,0,3.39,2.8,148.34,148.34,0,0,0,16.77,7.94l10.38,2.4,6.53.88c-2.18,1.19-4.28,2.54-6.37,3.9-2.33,1.51-5.12,3.05-8,4.66-.1-1.36-1.29-2.51-2.44-3.38a49.74,49.74,0,0,0-7-4.71c-7.28-3.81-14.47-2.78-22.05-.59-3,.88-5.64,1.07-8.22,3.19a32.66,32.66,0,0,0-5.86,7c-1.62,2.33-3.31,4.86-3.28,7.69,0,1.39.44,2.74.52,4.13.14,2.32-1.62,3.36-1.54,5.52.15,4.06,2.24,7,4.6,10.12a44,44,0,0,1,2.25,3.86c.6,1,3.44,2.73,3.59,3.64.2,1.32-3.62,2.24-4.6,2.66A43.49,43.49,0,0,0,413,633.21a22.75,22.75,0,0,0-7.78,18.86c.22,3.5,1.44,6.75,2.3,10.11s3.16,5.34,5.73,7.42a30.93,30.93,0,0,0,19.05,6.92l-1,.65c-9.92,6.6-15.64,20.93-9,31.6l1.92,3.09a35.17,35.17,0,0,0,2.53,3.75,23.21,23.21,0,0,0,6.63,5.47,31.34,31.34,0,0,0,5.7,2.56c3.58,1.2,6.88.83,10.55.8,1.3,0,9.88-1,10-2.58-.07.73-.17,1.45-.17,2.18a26.16,26.16,0,0,0,5.3,15,25.59,25.59,0,0,0,2.8,3.18,24.85,24.85,0,0,0,6,4.67c2.62,1.22,6.34,1.35,9.17,1.93l3.15.65c14.16,2.89,25.23-8.76,28.63-21.32a28.44,28.44,0,0,0,.74-4.57c1.45.6,2.91,1.16,4.41,1.66,6,2,13.43,1.94,19.72,2.79l16.58-1.12L568.41,724c13.7,1.31,27.26,1.4,41.19,1.91q19.21.71,38.44.61c16-.08,31.89-.63,47.81-1.48,13.88-.75,27.26,1.63,41.31-1.29C747.08,721.71,758.29,716.59,763.88,707.78ZM412.9,524c-1-2.27-2.2-4.52-3.34-6.74a17.72,17.72,0,0,1-1.8-4.4c-1.08-5.06,1.39-9.46,3.86-13.64,1-1.75,1.52-3.13,3.29-4.37,2-1.43,4.5-2,6.66-3.25,4.21-2.36,9.58-2.42,12.45,2.14a3,3,0,0,0,1.09,1.12c-2.24,2.22-4.41,4.51-6.42,6.93-3.63,4.35-5.55,7-5.93,12.9-.16,2.42-.62,5.54-.23,8a18.66,18.66,0,0,0,1.51,4.69C419.92,527.64,414.36,527.19,412.9,524ZM441,561.89c-2.93,2.11-3.22,7.88-8,7-1.88-.34-3.89-.53-5.78-.92-1.28-.26-2.07-1.59-3-1.85-3.26-.89-6.71-1.9-8.93-4.44a17.37,17.37,0,0,1-2.37-4L411,553.82c-1.89-4-1.52-7.56-.76-11.8a12.31,12.31,0,0,1,1.13-4.11c.94-1.45,3.11-2.6,4.46-3.67a24.7,24.7,0,0,1,3.7-2.57c.12-.31,4.23-1.5,4.88-1.67a4.63,4.63,0,0,1,.9-.12c2.2,4,5.15,7.89,7.09,11.34,2.61,4.65,3,10.63,6.08,14.95,1.17,1.63,2.27,3.43,3.44,5.19A7,7,0,0,0,441,561.89Zm-9.67,33.59a5,5,0,0,1,1.06-2.25,4.8,4.8,0,0,1,1.65-1c6.78-2.9,18.24-11.31,25.11-5,1.3,1.2,2.55,2.57,4.22,3.14-5.6,3.33-10.95,7.12-13.51,12-3.87,7.28-5.72,15.05-7.5,22.93-3.27-.48-6.47-1.12-9-3.35-3.44-3-3.64-6.46-4.28-10.79C428.26,605.79,429.89,600.68,431.33,595.48Zm-4.16,74.94c-1.67-2.27-3.48-4.5-5.25-6.71a20.52,20.52,0,0,1-3-4.46c-2.35-5.37-.63-10.82,1.16-16,.75-2.18,1-3.82,2.65-5.61,1.93-2,4.53-3.29,6.65-5.13,4.07-3.53,7.85-3.42,12.15-3.51-.39,1.69-.78,3.39-1.21,5.09a53.69,53.69,0,0,0-2.06,12c-.12,6.08,2.65,11.41,3.67,17.29.41,2.37,1,4.77,1.59,7.17l0,0C439.55,672.16,430.16,674.51,427.17,670.42Zm32.57,45.26c-2.16.05-4.44.3-6.62.31-1.48,0-2.66-1.3-3.81-1.37-3.82-.24-7.88-.56-10.93-2.88a20,20,0,0,1-3.55-3.9c-1-1.3-1.95-2.59-2.93-3.89-3-4-3.41-8-3.54-12.92,0-1.43-.22-3.46.31-4.82.71-1.82,2.86-3.59,4.11-5.08a26.87,26.87,0,0,1,3.52-3.71c.05-.37,4.34-2.63,5-3a11.77,11.77,0,0,1,3.12-.82,62.1,62.1,0,0,0,6.37,14.54c4.92,8,11.56,11.17,18.22,16.34a4.11,4.11,0,0,0-1.76,1.2C464.86,708.7,465.07,715.53,459.74,715.68Zm51.61,8.62c-1.36,3.22-2.43,8.37-5.23,10.52s-7.28,3-10.59,3.73c-3.07.7-6,1.76-9.24,1.75a14.92,14.92,0,0,1-5.93-1.22,12.14,12.14,0,0,1-5.62-5c-1.76-2.61-4.7-4.38-7-6.47-2-1.78-1.79-3.39-1.47-6.05.2-1.61.07-3.9.8-5.35,1-2.09,5.41-5.4,6.17-8.37,8.75,6.63,18.26,8.16,29.15,10.92a70.51,70.51,0,0,1,10.13,3.69A6.57,6.57,0,0,0,511.35,724.3Zm181.59-15.44c-8.3.57-16.82,1.14-25.41,1.29a326,326,0,0,1-37.1-1.7c-10-1-19.22-2.58-29.32-2.07a4.21,4.21,0,0,1-2.23-.3,2.65,2.65,0,0,1-1.17-1.4c3.2-4.6,5.41-10.24,7.42-15.32a119,119,0,0,0,8.29-48.54c-.43-10.17-1.33-23.23-8.54-31-3.26-3.51-6-7.44-9.21-11s-7-5.76-10.45-8.88A103.88,103.88,0,0,0,559.66,573c-5-2.34-9.61-1.43-15.16-1.61-2.81-.09-11.42-2.94-12.43.61-1.27,4.42,12.67,6.47,15.61,7.78,5.91,2.62,11.4,6,15.51,11.1,6.67,8.26,17,12.93,24,21.14,13,15.12,9.42,30.77,8.95,49l-5.3,17.87-14.3,20.47-8.85,6.51-7.44,2.42-15,.93c-13.5.05-29.32-5.88-42.26-9.93-13.58-4.26-27-10.6-35.59-22.36-6.2-8.46-4.8-23-6.15-33-1.21-8.9-2.44-15,2.42-23.54,2.45-4.28,6.71-7.19,9.85-10.92C484,597.1,501.7,592,517.08,597.79c7.87,3,13.52,9.17,20.64,13.23,8.32,4.74,15.85,11.29,20.94,19.46a32.78,32.78,0,0,1,4.61,19.32A20.23,20.23,0,0,1,558.92,662c-2.95,3.43-7.26,5.33-11.41,7.12-5.31,2.29-10.81,4.62-16.6,4.7-7.79.1-10.52-4.44-15.61-8.8-4-3.41-9.43-6.14-10.24-11.84-.85-6.06,4.28-9,8.72-11.73,2.22-1.38,5.3-3.93,8.06-3.86,2.3.06,6.52,3.22,6.59,5.56.12,3.88-6.24,4.24-6,7.94s6.75,4.17,9.25,3.31c4.64-1.6,11-10.54,9.15-15.44a16.68,16.68,0,0,0-3.75-5.22c-4.78-5.14-8.33-13-16.33-13.21-10.15-.3-18.84,9.56-26.8,14.48-6.18,3.83-10.17,8.38-6.06,15.4,4.62,7.87,10.73,15.3,16,22.81,3.14,4.48,7.55,10.38,12.4,13.19,6.49,3.77,15.78,3.3,22.83,1.8,8.38-1.79,16.18-5.57,23.88-9.32,5.21-2.53,10.67-5.28,13.83-10.13,2.66-4.07,3.33-9.19,2.82-14-.52-5-2.13-9.58-2.45-14.57-.36-5.76-3.36-10.58-5.14-16-2.78-8.55-9.5-15.83-16-22.06-4.9-4.68-9.7-9.76-15.68-13.07-7.45-4.13-16.84-5.57-24.79-8.83a76.85,76.85,0,0,0-7.47-2.67l2.61-.6,11.52-5.51L532.42,563l8.64-12.38,4.61-11.31c1.06-7,3.07-13,2.31-20.49-.84-8.21-3.52-16.25-6.49-24.07-1-2.49-1.06-4.92-2.24-7.37a51.82,51.82,0,0,0-10.77-14.51c-4.37-4.21-12.57-6.57-17.89-9.48-1.54-.84-3.24-1.8-5-2.75.4-.23.81-.42,1.2-.65,3-1.83,6.24-3,9.24-4.86,3.81-2.4,8.51-5,13.13-4.51,4.92.52,10.09,3,14.14,5.77a63.34,63.34,0,0,0,6.43,4.38c2,1,4.14,1.15,6.25,1.89a24.19,24.19,0,0,0,14.44.15,20,20,0,0,0,5.94-2.7c.49-.34,2.14-1.13,2.1-1.75-.05-.94-3.64-2.26-5.1-2-5.17.81-11,2.2-15.93-.22s-9.39-6.85-14.28-9.75c-4-2.37-8.88-4.62-13.65-4.67-4.45-.05-8,3-11.74,5.17-1.07.6-6,1.94-6.4,2.82,1.1-2.24,2.55-3.5,4.16-5.28,1.89-2.11,2.86-4.45,5.41-6l8.93-1.52c4.86.74,11.82,2.28,15,3.56,4.79,1.9,8.81,3.65,13.93,4.51,7.69,1.29,14.44,2.37,21.56-1.05,5.25-2.51,10.56-4.92,15.73-7.57,3.37-1.72,5.88-4.38,9.1-6.2,7.42-4.22,19.77-1.64,26.66,2.61a124.92,124.92,0,0,1,16.41,11.46c5.42,4.66,9.11,9.51,16.23,11.48,12.57,3.46,27.6-.64,38-8.07,4.63-3.3,7.5-7.56,12.64-10.47,5-2.83,8.91-8.66,14.26-10.48a19.12,19.12,0,0,1,3.26-.7c7.75,2.46,15,14,17.48,20.25,4.64,11.54,4.86,24.13,6,36.35,1.55,17.17.83,34.86,1.24,52.1.17,7,.76,14.06.51,21-.16,4.36-1.46,8.36-1.36,12.76.15,6.93,4.14,18.2-3.43,22.75-4.33,2.61-12.3,3-17.26,4.15l-18.92,4.56c-6.68,1.61-13.7,3.22-20.35,1.47-11.68-3.08-11.14-12.28-11-21.9a36.28,36.28,0,0,0-.14-4.84c-.36-2.65-.72-3.18-.78-3.26-4.16-.5-4.37.16-4.7,1.38-3.05,11.57-6.92,32.37,7.39,37.7,6,2.22,12.56,1.56,18.89.87,12.55-1.36,26.17-4.51,38.77-4.21,11.92.29,12,12,12.35,21.32s.41,18.73.39,28.09c0,6.9,1.68,14.28-.08,21.08-1.51,5.85-2.19,12.42-6.18,17.31-.56.68-1.14,1.33-1.74,1.94C736.15,710.6,710.19,707.68,692.94,708.86Z"/><polygon class="cls-1" points="599.84 196.7 593.8 210.26 593.85 216.45 594.99 218.69 596.1 218.69 596.11 219.81 598.92 221.48 602.83 221.45 605.61 219.74 609.48 215.2 609.45 211.82 603.31 211.31 603.85 209.05 607.15 203.4 609.92 200.56 612.71 199.97 613.85 202.22 613.95 214.6 613.41 217.98 611.23 224.76 607.36 229.29 598.48 236.12 589.03 241.82 586.25 244.1 586.83 246.35 591.85 246.31 595.2 245.72 604.67 242.26 611.34 238.27 615.21 233.74 618.52 227.51 620.13 220.18 620.61 209.48 619.97 199.35 618.82 195.42 616.56 192.62 612.08 190.41 606.49 190.45 603.15 192.17 599.84 196.7"/><polygon class="cls-1" points="500.49 176.71 518.33 201.08 528.95 217.25 534.73 226.95 550.3 255.49 552.38 256.65 554.1 254.26 553.39 248.65 548.13 235.68 541.04 219.18 528.77 194.16 521.95 176.77 521.28 172.64 521.49 168.79 524.07 165.21 526.09 163.41 531.91 160.38 559.31 149.13 568.95 146.36 577.74 144.78 583.92 145.31 585.42 146.77 587.56 150.89 588.33 159.47 587.25 164.51 583.52 168.69 579.75 171.4 554.15 184.71 550.05 185.34 548.52 182.4 550.82 179.71 558.01 172.23 571.03 161.73 572.71 157.86 570.91 155.81 567.08 155.56 557.77 160.4 547.36 168.8 539.58 176.58 537.04 181.64 537.47 188.15 540.53 194.03 546.5 198.41 550.63 199.25 559.11 197.08 569 191.94 589.91 179.57 597.44 174.17 601.46 169.09 604.27 163.14 605.84 153.35 605.6 141.52 605.26 139.45 601.9 132.98 597.43 130.07 590.63 128.36 580.35 128.48 567.15 130.1 554.57 132.91 542.02 137.19 533.56 140.83 508.82 152.94 502.15 157.16 499 161.04 497.65 166.98 498.01 170.53 500.49 176.71"/><polygon class="cls-1" points="692.59 318.14 688.91 318.66 684.58 322.63 682.54 327.01 685.12 332.24 690.9 336.27 698.49 337.07 703.74 331.48 706.88 321.34 709.11 312.83 708.13 305.51 704.65 301.9 699.58 300.38 671.87 301.48 667.29 303.62 669.15 306.33 686.54 309.3 690.21 308.78 691.14 310.14 696.9 311.19 700.16 315.95 700.18 318.93 697.71 325.62 694.75 328.65 692.2 326.4 693.3 320.65 692.59 318.14"/><path class="cls-1" d="M635.14,476.33V477l-2.77,0,0-.85a11.36,11.36,0,0,0-1.14-.05c-3.86,0-8.18,1.69-11.91,3.28A25.7,25.7,0,0,0,606,493.07a17,17,0,0,0,.32,13.66c5.25,11.55,12.54,20,22.3,26,3.94,2.39,8.3,2.65,13.51.84,2.74-.93,4.89-3.12,7-5.47l.64-.69c8.74-9.61,11.7-21.17,9-35.35C657,482.67,648,476.72,635.14,476.33Z"/></svg>